<?xml version="1.0" standalone="no"?><!DOCTYPE svg PUBLIC "-//W3C//DTD SVG 1.1//EN" "http://www.w3.org/Graphics/SVG/1.1/DTD/svg11.dtd"><svg t="1638452327757" class="icon" viewBox="0 0 1024 1024" version="1.1" xmlns="http://www.w3.org/2000/svg" p-id="4343" xmlns:xlink="http://www.w3.org/1999/xlink" width="64" height="64"><defs><style type="text/css"></style></defs><path d="M929.3 251.6H444.7c-15.3 0-27.8-12.5-27.8-27.8s12.5-27.8 27.8-27.8h484.7c15.3 0 27.8 12.5 27.8 27.8-0.1 15.3-12.5 27.8-27.9 27.8z m-768 67.4c-7.4 0-14.5-2.9-19.6-8.2l-68.5-68.5a27.704 27.704 0 0 1 0-39.3c10.9-10.9 28.4-10.9 39.3 0l48.7 48.7 141.2-143.4c10.8-11 28.3-11.1 39.3-0.3 11 10.8 11.1 28.3 0.3 39.3L181 310.8c-5.2 5.3-12.3 8.2-19.7 8.2z m768 225.2H444.7c-15.3 0-27.8-12.5-27.8-27.8s12.5-27.8 27.8-27.8h484.7c15.3 0 27.8 12.5 27.8 27.8-0.1 15.4-12.5 27.8-27.9 27.8z m-768 67.4c-7.4 0-14.5-2.9-19.6-8.2L73.2 535a27.704 27.704 0 0 1 0-39.3c10.9-10.9 28.4-10.9 39.3 0l48.7 48.7L302.4 401c10.8-11 28.3-11.1 39.3-0.3 11 10.8 11.1 28.3 0.3 39.3L181 603.3c-5.2 5.3-12.3 8.3-19.7 8.3z m0 0M929.3 858.7H444.7c-15.3 0-27.8-12.5-27.8-27.8s12.5-27.8 27.8-27.8h484.7c15.3 0 27.8 12.5 27.8 27.8-0.1 15.4-12.5 27.8-27.9 27.8z m-768 67.4c-7.4 0-14.5-2.9-19.6-8.2l-68.5-68.5a27.704 27.704 0 0 1 0-39.3c10.9-10.9 28.4-10.9 39.3 0l48.7 48.7 141.2-143.4c10.8-11 28.3-11.1 39.3-0.3 11 10.8 11.1 28.3 0.3 39.3L181 917.8c-5.2 5.3-12.3 8.3-19.7 8.3z m0 0" fill="#2c2c2c" p-id="4344"></path></svg>