<?xml version="1.0" standalone="no"?><!DOCTYPE svg PUBLIC "-//W3C//DTD SVG 1.1//EN" "http://www.w3.org/Graphics/SVG/1.1/DTD/svg11.dtd"><svg t="1636477268853" class="icon" viewBox="0 0 1024 1024" version="1.1" xmlns="http://www.w3.org/2000/svg" p-id="36202" xmlns:xlink="http://www.w3.org/1999/xlink" width="64" height="64"><defs><style type="text/css"></style></defs><path d="M804.571429 73.142857v365.714286h73.142857V67.364571A67.364571 67.364571 0 0 0 810.349714 0H67.364571A67.364571 67.364571 0 0 0 0 67.364571v669.842286A67.364571 67.364571 0 0 0 67.364571 804.571429H219.428571v-73.142858H73.142857V73.142857h731.428572" fill="#1ECC94" p-id="36203"></path><path d="M950.857143 658.285714v292.571429H438.857143V658.285714h512m30.061714-73.142857H408.795429A43.081143 43.081143 0 0 0 365.714286 628.224v352.694857a43.081143 43.081143 0 0 0 43.081143 43.081143h572.123428a43.081143 43.081143 0 0 0 43.081143-43.081143V628.224A43.081143 43.081143 0 0 0 980.918857 585.142857z" fill="#1ECC94" p-id="36204"></path></svg>