<?xml version="1.0" standalone="no"?><!DOCTYPE svg PUBLIC "-//W3C//DTD SVG 1.1//EN" "http://www.w3.org/Graphics/SVG/1.1/DTD/svg11.dtd"><svg t="1636476673187" class="icon" viewBox="0 0 1024 1024" version="1.1" xmlns="http://www.w3.org/2000/svg" p-id="11990" xmlns:xlink="http://www.w3.org/1999/xlink" width="64" height="64"><defs><style type="text/css"></style></defs><path d="M537.67329296 511.99068192l150.5094268-150.4911958c7.0890213-7.08942644 7.0890213-18.57454847 1e-8-25.66438003-7.08942644-7.08861619-18.57535873-7.08861619-25.66478517 0L512.0085078 486.34453289 361.4820654 335.81809049c-7.08983159-7.08942644-18.57454847-7.08942644-25.66438005-1e-8-7.08942644 7.08861619-7.08942644 18.5749536 0 25.66356979l150.52725267 150.50902165-150.52725266 150.52725268c-7.08942644 7.08942644-7.08942644 18.57333306 0 25.66397491 6.99786634 6.99665093 18.67178045 6.99178932 25.66438004 0l150.5264424-150.52765781c0 0 150.45675948 150.45756977 150.5094268 150.51023708 6.9913842 6.99178932 18.68393443 6.97923021 25.66478517 0 7.0890213-7.08942644 7.0890213-18.5749536 0-25.66438004L537.67329296 511.99068192z" p-id="11991" fill="#7B7B7B"></path></svg>