<?xml version="1.0" standalone="no"?><!DOCTYPE svg PUBLIC "-//W3C//DTD SVG 1.1//EN" "http://www.w3.org/Graphics/SVG/1.1/DTD/svg11.dtd"><svg t="1636474692697" class="icon" viewBox="0 0 1024 1024" version="1.1" xmlns="http://www.w3.org/2000/svg" p-id="7954" xmlns:xlink="http://www.w3.org/1999/xlink" width="64" height="64"><defs><style type="text/css"></style></defs><path d="M853.845333 512h-28.842666c-62.691556 0-113.777778-51.029333-113.777778-113.777778V170.666667a113.777778 113.777778 0 0 0-113.777778-113.777778H426.552889a113.777778 113.777778 0 0 0-113.777778 113.777778v227.555555h56.888889V170.666667c0-31.345778 25.486222-56.888889 56.888889-56.888889h170.894222c31.402667 0 56.888889 25.543111 56.888889 56.888889v227.555555a170.666667 170.666667 0 0 0 170.666667 170.666667h28.842666c17.92 0 24.405333 12.174222 26.282667 17.408a22.755556 22.755556 0 0 1-7.395556 26.908444l-333.710222 287.232a41.130667 41.130667 0 0 1-26.851555 9.784889 41.244444 41.244444 0 0 1-26.851556-9.784889L151.153778 612.807111a22.641778 22.641778 0 0 1-7.281778-26.737778A26.168889 26.168889 0 0 1 169.984 568.888889h199.68V512h-199.68C92.16 512 55.751111 605.752889 114.062222 655.928889l334.165334 287.630222c18.204444 15.701333 41.130667 23.552 63.943111 23.552a97.848889 97.848889 0 0 0 63.943111-23.552l333.767111-287.288889C968.362667 606.094222 931.84 512 853.845333 512" p-id="7955" fill="#D2F6EE"></path></svg>