<?xml version="1.0" standalone="no"?><!DOCTYPE svg PUBLIC "-//W3C//DTD SVG 1.1//EN" "http://www.w3.org/Graphics/SVG/1.1/DTD/svg11.dtd"><svg t="1636186648243" class="icon" viewBox="0 0 1237 1024" version="1.1" xmlns="http://www.w3.org/2000/svg" p-id="34586" xmlns:xlink="http://www.w3.org/1999/xlink" width="77.3125" height="64"><defs><style type="text/css"></style></defs><path d="M0 313.728a313.728 313.728 0 0 1 496.170667-255.189333 33.450667 33.450667 0 0 0 9.514666 18.901333l285.184 285.184a33.621333 33.621333 0 1 0 47.530667-47.530667l-199.68-199.68 23.552-23.509333a313.728 313.728 0 0 1 443.690667 443.648l-316.928 316.885333-158.421334 158.421334a44.8 44.8 0 0 1-63.402666 0L408.789333 852.48l-316.885333-316.885333A313.728 313.728 0 0 1 0 313.685333z" p-id="34587" fill="#ff6a6a"></path></svg>