<?xml version="1.0" standalone="no"?><!DOCTYPE svg PUBLIC "-//W3C//DTD SVG 1.1//EN" "http://www.w3.org/Graphics/SVG/1.1/DTD/svg11.dtd"><svg t="1636187382235" class="icon" viewBox="0 0 1024 1024" version="1.1" xmlns="http://www.w3.org/2000/svg" p-id="75223" xmlns:xlink="http://www.w3.org/1999/xlink" width="64" height="64"><defs><style type="text/css"></style></defs><path d="M874.621813 150.207624A508.606728 508.606728 0 0 0 512.510719 0.192a508.350729 508.350729 0 0 0-361.983095 150.015624A508.350729 508.350729 0 0 0 0.511999 512.19072c0 136.767658 53.247867 265.343337 150.015625 361.983095a508.542729 508.542729 0 0 0 361.983095 150.015625 508.350729 508.350729 0 0 0 361.983095-150.015625 508.542729 508.542729 0 0 0 150.015625-361.983095 508.670728 508.670728 0 0 0-149.887626-361.983096z m-148.607628 570.238575a32.447919 32.447919 0 0 1-45.823885 0L485.758786 525.822685a32.575919 32.575919 0 0 1-7.615981-12.159969 31.99992 31.99992 0 0 1-3.839991-15.423962V223.231442c0-17.855955 14.591964-32.447919 32.383919-32.447919H511.99872c17.791956 0 32.383919 14.591964 32.383919 32.383919v262.143345l185.535536 185.471536a32.575919 32.575919 0 0 1-0.127999 45.823885l-3.839991 3.839991z" fill="#303030" p-id="75224"></path></svg>