<?xml version="1.0" standalone="no"?><!DOCTYPE svg PUBLIC "-//W3C//DTD SVG 1.1//EN" "http://www.w3.org/Graphics/SVG/1.1/DTD/svg11.dtd"><svg t="1636205913046" class="icon" viewBox="0 0 1151 1024" version="1.1" xmlns="http://www.w3.org/2000/svg" p-id="34250" xmlns:xlink="http://www.w3.org/1999/xlink" width="71.9375" height="64"><defs><style type="text/css"></style></defs><path d="M1029.298 676.643c-11.11 0-18.51-7.4-18.51-18.51V508.236c0-223.955-181.389-405.344-405.343-405.344h-3.71c-107.349 0-209.153 40.729-285.047 116.605A396.125 396.125 0 0 0 196.41 504.509v151.77c0 11.109-7.4 18.51-18.51 18.51s-18.51-7.401-18.51-18.51V502.671c0-118.46 46.275-229.5 131.442-310.958C374.072 108.51 485.132 64 601.736 64h1.8l1.8 18.51V64c244.32 1.8 442.364 199.863 442.364 444.218v149.915c0 11.11-7.4 18.51-18.51 18.51z m0 0" p-id="34251" fill="#7B7B7B"></path><path d="M235.266 861.74h-5.563c-38.874 0-72.185-31.455-72.185-70.33V580.403c0-38.874 31.474-70.366 72.185-70.366h5.545c38.875 0 72.185 31.456 72.185 70.33v209.19c0 40.729-31.474 72.185-72.185 72.185z m-3.709-314.648c-18.51 0-35.147 14.8-35.147 33.31v209.154c0 18.51 14.8 33.31 35.165 33.31h5.528c18.51 0 35.165-14.818 35.165-33.31V580.402c0-18.51-14.819-33.328-35.165-33.328z m0 0" p-id="34252" fill="#7B7B7B"></path><path d="M177.882 776.52c-1.8 0-5.545 0-7.4-1.8l-74.04-35.148q-11.109-5.545-11.109-16.655V610.022c0-7.4 5.546-14.819 12.964-18.51l74.04-24.056c5.545-1.8 11.11 0 16.655 1.8a16.835 16.835 0 0 1 7.418 14.856v172.134c0 5.545-3.709 12.964-9.255 14.818a10.173 10.173 0 0 1-9.273 5.456z m-55.529-64.82l37.02 16.655V610.022l-37.02 12.946z m906.945 64.82a14.134 14.134 0 0 1-9.255-3.71c-5.545-3.69-9.255-9.254-9.255-14.8V585.876c0-5.546 3.71-11.11 7.4-14.819a18.006 18.006 0 0 1 16.656-1.8l74.04 24.055c7.4 1.801 12.963 9.255 12.963 18.51v111.06q0 11.109-11.11 16.654l-74.039 35.183c-1.8 0-5.563 1.801-7.4 1.801z m18.51-166.588V728.39l37.02-16.655v-88.768z m0 0" p-id="34253" fill="#7B7B7B"></path><path d="M977.478 861.74h-5.564a70.222 70.222 0 0 1-70.33-70.33V580.403a70.222 70.222 0 0 1 70.33-70.366h5.546a70.222 70.222 0 0 1 70.33 70.33v209.19c0 40.729-31.474 72.185-70.33 72.185z m-7.4-314.648a33.184 33.184 0 0 0-33.31 33.328v209.136a33.184 33.184 0 0 0 33.31 33.31h5.545a33.184 33.184 0 0 0 33.31-33.31V580.402a33.184 33.184 0 0 0-33.31-33.328z m0 0M824.448 565.008q11.757 16.817 5.401 37.901l-81.025 266.61a60.77 60.77 0 0 1-22.543 31.6 58.464 58.464 0 0 1-36.011 12.802H418.834c-15.125 0-29.637-5.257-43.664-15.737a82.934 82.934 0 0 1-29.313-38.712c-4.717-13.108-4.897-25.604-0.612-37.362 0-0.792 0.306-3.42 0.846-7.904s0.973-8.085 1.17-10.894a17.538 17.538 0 0 0-0.864-6.302 14.567 14.567 0 0 1-0.864-5.761 18.15 18.15 0 0 1 2.323-6.194 65.036 65.036 0 0 1 4.843-6.914 74.13 74.13 0 0 0 4.844-6.915 187.655 187.655 0 0 0 13.234-27.008 165.112 165.112 0 0 0 8.823-27.009 22.543 22.543 0 0 0 0.126-8.822 24.416 24.416 0 0 1-0.126-8.211 23.803 23.803 0 0 1 5.023-8.21 62.354 62.354 0 0 0 5.024-6.735 180.363 180.363 0 0 0 12.37-27.008 117.973 117.973 0 0 0 7.346-26.45 44.204 44.204 0 0 0-0.738-9.435c-0.666-4.538-0.612-7.203 0.126-8.211a24.632 24.632 0 0 1 6.482-9.003c3.601-3.42 5.69-5.636 6.5-6.608q5.6-7.616 12.496-24.866t8.085-28.413a25.946 25.946 0 0 0-0.865-7.472 19.356 19.356 0 0 1-0.612-7.778 17.033 17.033 0 0 1 2.629-5.402c1.35-1.963 3.187-4.231 5.402-6.734s3.853-4.592 5.023-6.176a65.36 65.36 0 0 0 4.844-9.003c1.656-3.601 3.187-7.04 4.411-10.281s2.809-6.734 4.718-10.606a50.416 50.416 0 0 1 5.761-9.435 34.769 34.769 0 0 1 7.779-6.914 19.806 19.806 0 0 1 10.587-3.42 60.067 60.067 0 0 1 13.955 1.602l-0.306 0.864a79.657 79.657 0 0 1 14.998-2.629h223.847c14.512 0 25.658 5.51 33.562 16.475s9.615 23.75 5.402 38.208L702.71 783.308c-7.04 23.408-14.026 38.334-21.066 45.194s-19.536 10.156-37.812 10.156h-255.68q-7.995 0-11.2 4.411c-2.143 3.187-2.197 7.346-0.306 12.604 4.717 13.72 18.798 20.58 42.367 20.58h271.58a32.41 32.41 0 0 0 16.475-4.591 21.139 21.139 0 0 0 10.281-12.19l88.228-290.377a48.957 48.957 0 0 0 1.476-16.781 39.162 39.162 0 0 1 17.394 12.604z m-337.39 75.93a7.454 7.454 0 0 0 0.612 6.607 6.482 6.482 0 0 0 5.834 2.755h178.868a12.244 12.244 0 0 0 7.472-2.755 12.838 12.838 0 0 0 4.844-6.608l6.194-18.797a7.454 7.454 0 0 0-0.612-6.609 6.482 6.482 0 0 0-5.87-2.754H505.55a12.28 12.28 0 0 0-7.473 2.754 12.892 12.892 0 0 0-4.843 6.609z m24.451-75.39a7.454 7.454 0 0 0 0.613 6.608 6.482 6.482 0 0 0 5.87 2.755H696.86a12.28 12.28 0 0 0 7.472-2.755 12.874 12.874 0 0 0 4.844-6.608l6.193-18.798a7.454 7.454 0 0 0-0.612-6.608 6.482 6.482 0 0 0-5.87-2.755H530.091a12.28 12.28 0 0 0-7.472 2.755 12.892 12.892 0 0 0-4.844 6.608z m0 0" p-id="34254" fill="#7B7B7B"></path><path d="M403.998 970.333c14.026 10.48 28.539 15.737 43.663 15.737h271.436a58.464 58.464 0 0 0 36.01-12.802 60.77 60.77 0 0 0 22.544-31.6l81.026-266.61q6.428-21.12-5.402-37.902a39.162 39.162 0 0 0-17.394-12.604 48.957 48.957 0 0 1-1.476 16.782L746.177 931.71a21.139 21.139 0 0 1-10.281 12.19 32.41 32.41 0 0 1-16.475 4.591H447.84c-23.57 0-37.668-6.86-42.367-20.58-1.89-5.258-1.8-9.435 0.306-12.604a9.633 9.633 0 0 1 4.177-3.187l-34.03-40.17a12.604 12.604 0 0 1 0.216 3.456c-0.18 2.809-0.558 6.374-1.17 10.894s-0.847 7.112-0.847 7.904a50.308 50.308 0 0 0-2.989 14.513v5.851a60.427 60.427 0 0 0 3.601 16.98 82.934 82.934 0 0 0 29.26 38.784z" p-id="34255" fill="#7B7B7B"></path></svg>