<?xml version="1.0" standalone="no"?><!DOCTYPE svg PUBLIC "-//W3C//DTD SVG 1.1//EN" "http://www.w3.org/Graphics/SVG/1.1/DTD/svg11.dtd"><svg t="1636474845902" class="icon" viewBox="0 0 1024 1024" version="1.1" xmlns="http://www.w3.org/2000/svg" p-id="709" xmlns:xlink="http://www.w3.org/1999/xlink" width="64" height="64"><defs><style type="text/css"></style></defs><path d="M756.41629648 226.80691805H267.58370352c-22.40482718 0-40.7360494 18.33122224-40.73604942 40.73604942v488.83259296c0 22.40482718 18.33122224 40.7360494 40.73604942 40.73604942h488.83259296c22.40482718 0 40.7360494-18.33122224 40.73604942-40.73604942v-488.83259296c0-22.40482718-18.33122224-40.7360494-40.73604942-40.73604941z m0 509.20061767c0 11.20241359-9.16561112 20.36802471-20.36802471 20.3680247h-448.09654354a20.40876076 20.40876076 0 0 1-20.36802471-20.36802469v-448.09654356c0-11.20241359 9.16561112-20.36802471 20.36802471-20.36802471h448.09654354c11.20241359 0 20.36802471 9.16561112 20.36802471 20.36802471v448.09654355z" p-id="710" fill="#1ECC94"></path></svg>