<?xml version="1.0" standalone="no"?><!DOCTYPE svg PUBLIC "-//W3C//DTD SVG 1.1//EN" "http://www.w3.org/Graphics/SVG/1.1/DTD/svg11.dtd"><svg t="1636175590638" class="icon" viewBox="0 0 1024 1024" version="1.1" xmlns="http://www.w3.org/2000/svg" p-id="2896" xmlns:xlink="http://www.w3.org/1999/xlink" width="64" height="64"><defs><style type="text/css"></style></defs><path d="M296.99612 845.251499a116.396473 116.396473 0 0 1-115.719224-116.938271c0-65.241623 51.1097-116.847972 115.719224-116.847972 25.55485 0 49.664903 9.075132 70.659612 24.245502l6.050088 4.605291V265.346032c0-22.755556 17.969665-40.99612 39.054674-40.99612l386.438095-45.556261h2.979894c21.039859-1.535097 40.544621 16.705467 40.544621 39.461023v438.676543c0 31.920988-12.009877 60.771781-34.584832 81.99224a115.493474 115.493474 0 0 1-81.179542 33.365785 116.396473 116.396473 0 0 1-115.764374-116.893122c0-63.751675 51.1097-116.893122 115.764374-116.893122 25.5097 0 51.1097 9.120282 70.659612 24.290653l6.004938 4.605291V364.043739l-390.817636 42.486067v321.783422c-1.535097 65.286772-52.644797 116.938272-115.809524 116.938271z" fill="#231815" p-id="2897"></path></svg>