<?xml version="1.0" standalone="no"?><!DOCTYPE svg PUBLIC "-//W3C//DTD SVG 1.1//EN" "http://www.w3.org/Graphics/SVG/1.1/DTD/svg11.dtd"><svg t="1636546907931" class="icon" viewBox="0 0 1024 1024" version="1.1" xmlns="http://www.w3.org/2000/svg" p-id="21930" xmlns:xlink="http://www.w3.org/1999/xlink" width="64" height="64"><defs><style type="text/css"></style></defs><path d="M580.084519 495.289443l-104.189759-62.513651c-15.304537-9.183131-27.851269-2.525515-27.851269 14.972986l0 128.502442c0 17.884287 12.468961 24.202167 27.851269 14.972986l104.189759-62.513651C595.389055 519.527425 595.465803 504.518623 580.084519 495.289443z" p-id="21931" fill="#2c2c2c"></path><path d="M831.624959 256.173962 192.376064 256.173962c-34.96528 0-64.115122 28.549163-64.115122 63.766175l0 384.118703c0 34.792341 28.704705 63.766175 64.115122 63.766175l639.248895 0c34.96528 0 64.114098-28.549163 64.114098-63.766175L895.739057 319.940137C895.739057 285.148819 867.034353 256.173962 831.624959 256.173962zM831.782548 704.05884c0-0.404205-0.215917-0.190335-0.157589-0.190335L192.376064 703.868505c0.047072 0-0.158612-0.205684-0.158612 0.190335L192.217452 319.940137c0 0.403182 0.215917 0.190335 0.158612 0.190335l639.248895 0c-0.048095 0 0.157589 0.205684 0.157589-0.190335L831.782548 704.05884z" p-id="21932" fill="#2c2c2c"></path></svg>