<?xml version="1.0" standalone="no"?><!DOCTYPE svg PUBLIC "-//W3C//DTD SVG 1.1//EN" "http://www.w3.org/Graphics/SVG/1.1/DTD/svg11.dtd"><svg t="1636187056651" class="icon" viewBox="0 0 1024 1024" version="1.1" xmlns="http://www.w3.org/2000/svg" p-id="37812" xmlns:xlink="http://www.w3.org/1999/xlink" width="64" height="64"><defs><style type="text/css"></style></defs><path d="M770.062 895.456h-111.64V841.64H365.592v53.816h-111.64c-16.826 0-30.466 13.64-30.466 30.466s13.64 30.466 30.466 30.466h516.112c16.826 0 30.466-13.64 30.466-30.466 0-16.824-13.642-30.466-30.468-30.466zM0 667.886v82.356c0 16.826 13.64 30.466 30.466 30.466h963.068c16.826 0 30.466-13.64 30.466-30.466v-82.356H0zM993.534 67.61H30.466C13.64 67.61 0 81.252 0 98.076v508.876h1024V98.076c0-16.824-13.64-30.466-30.466-30.466z" p-id="37813" fill="#303030"></path></svg>