<?xml version="1.0" standalone="no"?><!DOCTYPE svg PUBLIC "-//W3C//DTD SVG 1.1//EN" "http://www.w3.org/Graphics/SVG/1.1/DTD/svg11.dtd"><svg t="1636185382308" class="icon" viewBox="0 0 1024 1024" version="1.1" xmlns="http://www.w3.org/2000/svg" p-id="5636" xmlns:xlink="http://www.w3.org/1999/xlink" width="64" height="64"><defs><style type="text/css"></style></defs><path d="M306.21 818.91c15.24-26.4 8.46-59.68-15.35-78.71-84.68-67.67-135.44-175.97-122.58-295.42 16.99-157.77 147.24-282.6 305.54-293.56 193.53-13.41 354.7 139.62 354.7 330.29 0 104.51-48.43 197.71-124.07 258.39-27.22 21.84-33.67 60.72-16.22 90.95 16.88 29.24 55.65 37.8 82.71 17.6 117.75-87.9 191.8-231.11 183.55-391.16-12.1-234.66-204.43-424.22-439.23-433.15C254.34 14.22 39.7 222.8 39.7 481.51c0 143.44 66.03 271.39 169.32 355.29 31.01 25.18 77.21 16.71 97.19-17.89z" fill="#303030" p-id="5637"></path><path d="M417.24 626.59c12.7-22 8.83-49.11-7.88-68.24-20.58-23.55-31.86-55.44-28.11-89.94 5.83-53.62 49.24-97.11 102.84-103.04 70.5-7.79 130.17 47.2 130.17 116.12 0 28.97-10.57 55.44-28.05 75.82-20.36 23.75-22.26 58.28-6.62 85.37 15.62 27.06 52.22 32.49 75.31 11.43 51.3-46.81 81.68-116.14 75.41-192.38-9.4-114.41-103.4-206.38-217.98-213.5-135.85-8.44-248.65 99.23-248.65 233.26 0 59.29 22.09 113.4 58.48 154.59 26.62 30.15 74.98 25.34 95.08-9.49z" fill="#303030" p-id="5638"></path><path d="M682.44 959.29H310.41c-2.01 0-3.26-2.17-2.26-3.91L494.16 633.2c1-1.74 3.51-1.74 4.52 0L684.7 955.38c1 1.73-0.25 3.91-2.26 3.91z" fill="#303030" p-id="5639"></path></svg>