<?xml version="1.0" standalone="no"?><!DOCTYPE svg PUBLIC "-//W3C//DTD SVG 1.1//EN" "http://www.w3.org/Graphics/SVG/1.1/DTD/svg11.dtd"><svg t="1636185737812" class="icon" viewBox="0 0 1024 1024" version="1.1" xmlns="http://www.w3.org/2000/svg" p-id="11889" xmlns:xlink="http://www.w3.org/1999/xlink" width="64" height="64"><defs><style type="text/css"></style></defs><path d="M513 64.2c-248 0-449 201-449 449s201 449 449 449 449-201 449-449-201-449-449-449z m86.1 648.3L513 650l-86.1 62.6c-22.3 16.2-53.5 11.3-69.8-11-9.4-12.9-12-29.6-7.1-44.8l32.9-101.2-86.1-62.6c-22.3-16.2-27.3-47.4-11-69.8 9.4-12.9 24.4-20.6 40.4-20.6h106.4l32.9-101.2c8.5-26.2 36.7-40.6 62.9-32.1 15.2 4.9 27.1 16.9 32.1 32.1l32.9 101.2h106.4c27.6 0 49.9 22.4 49.9 49.9 0 16-7.7 31-20.6 40.4L643 555.5l33 101.2c8.5 26.2-5.8 54.4-32.1 62.9-15.2 5-31.9 2.3-44.8-7.1z" fill="#D8F6EE" p-id="11890"></path></svg>