<?xml version="1.0" standalone="no"?><!DOCTYPE svg PUBLIC "-//W3C//DTD SVG 1.1//EN" "http://www.w3.org/Graphics/SVG/1.1/DTD/svg11.dtd"><svg t="1636198531524" class="icon" viewBox="0 0 1024 1024" version="1.1" xmlns="http://www.w3.org/2000/svg" p-id="6810" xmlns:xlink="http://www.w3.org/1999/xlink" width="64" height="64"><defs><style type="text/css"></style></defs><path d="M595.547835 73.135694l0 46.854121 0 10.579963 0 250.557546c-21.654182-14.642488-48.116881-23.281239-76.718289-23.281239-73.188906 0-132.516106 56.377008-132.516106 125.923968 0 69.544913 59.328223 125.923968 132.516106 125.923968 73.186859 0 132.514059-56.379055 132.514059-125.923968L651.343605 150.501736c115.233488 53.06252 195.286732 169.774685 195.286732 305.283961 0 281.647635-334.777693 447.729208-334.777693 447.729208s-334.774623-164.332742-334.774623-447.729208c0-180.761923 142.411477-328.098573 320.825936-335.442842l0-0.354064c7.703449 0 13.948687-6.264681 13.948687-13.991666L511.852644 78.014818c0-7.729032-6.244214-13.991666-13.948687-13.991666-1.311879 0-2.556219 0.240477-3.76065 0.580215-207.465099 9.31004-372.861056 180.787506-372.861056 391.18233 0 336.167343 390.56937 503.693824 390.56937 503.693824s390.573463-167.023014 390.573463-503.693824C902.426107 268.249487 771.020288 111.579261 595.547835 73.135694zM518.829546 553.727357c-42.371016 0-76.720336-31.321356-76.720336-69.957305 0-38.636972 34.349319-69.958328 76.720336-69.958328 42.36897 0 76.718289 31.321356 76.718289 69.958328C595.547835 522.406001 561.198515 553.727357 518.829546 553.727357z" p-id="6811" fill="#29CE99"></path></svg>