<?xml version="1.0" standalone="no"?><!DOCTYPE svg PUBLIC "-//W3C//DTD SVG 1.1//EN" "http://www.w3.org/Graphics/SVG/1.1/DTD/svg11.dtd"><svg t="1636200043028" class="icon" viewBox="0 0 1024 1024" version="1.1" xmlns="http://www.w3.org/2000/svg" p-id="23362" xmlns:xlink="http://www.w3.org/1999/xlink" width="64" height="64"><defs><style type="text/css"></style></defs><path d="M300 353c-45.84 0-83-37.16-83-83s37.16-83 83-83 83 37.16 83 83-37.16 83-83 83z m0-36c25.957 0 47-21.043 47-47s-21.043-47-47-47-47 21.043-47 47 21.043 47 47 47z" fill="#7B7B7B" p-id="23363" data-spm-anchor-id="a313x.7781069.0.i48" class="selected"></path><path d="M109 288.5c-9.941 0-18-8.059-18-18s8.059-18 18-18h108.26c9.941 0 18 8.059 18 18s-8.059 18-18 18H109z m267.84 0c-9.94 0-18-8.059-18-18s8.06-18 18-18H915.5c9.941 0 18 8.059 18 18s-8.059 18-18 18H376.84zM109 530.5c-9.941 0-18-8.059-18-18s8.059-18 18-18h537.777c9.94 0 18 8.059 18 18s-8.06 18-18 18H109z m683.513 0c-9.94 0-18-8.059-18-18s8.06-18 18-18H915.5c9.941 0 18 8.059 18 18s-8.059 18-18 18H792.513zM300 837c-45.84 0-83-37.16-83-83s37.16-83 83-83 83 37.16 83 83-37.16 83-83 83z m0-36c25.957 0 47-21.043 47-47s-21.043-47-47-47-47 21.043-47 47 21.043 47 47 47z" fill="#7B7B7B" p-id="23364" data-spm-anchor-id="a313x.7781069.0.i47" class="selected"></path><path d="M109 772.5c-9.941 0-18-8.059-18-18s8.059-18 18-18h104.32c9.94 0 18 8.059 18 18s-8.06 18-18 18H109z m278.896 0c-9.941 0-18-8.059-18-18s8.059-18 18-18H915.5c9.941 0 18 8.059 18 18s-8.059 18-18 18H387.896z" fill="#7B7B7B" p-id="23365" data-spm-anchor-id="a313x.7781069.0.i49" class="selected"></path><path d="M717 595c-45.84 0-83-37.16-83-83s37.16-83 83-83 83 37.16 83 83-37.16 83-83 83z m0-36c25.957 0 47-21.043 47-47s-21.043-47-47-47-47 21.043-47 47 21.043 47 47 47z" fill="#7B7B7B" p-id="23366" data-spm-anchor-id="a313x.7781069.0.i50" class="selected"></path></svg>