<?xml version="1.0" standalone="no"?><!DOCTYPE svg PUBLIC "-//W3C//DTD SVG 1.1//EN" "http://www.w3.org/Graphics/SVG/1.1/DTD/svg11.dtd"><svg t="1636551015446" class="icon" viewBox="0 0 1516 1024" version="1.1" xmlns="http://www.w3.org/2000/svg" p-id="22557" xmlns:xlink="http://www.w3.org/1999/xlink" width="94.75" height="64"><defs><style type="text/css"></style></defs><path d="M745.38983076 791.15254209h-158.64406787c-143.38983076 0-265.42372852-118.98305068-265.4237294-268.47457558v-21.35593302c0-149.49152578 118.98305068-268.47457646 265.4237294-268.47457558h158.64406787v67.11864345h-158.64406787c-109.83050859 0-198.30508506 91.52542354-198.30508506 201.35593213v21.35593302c0 109.83050859 88.47457646 201.35593213 198.30508506 201.35593212h158.64406787v67.11864346z m225.76271133 0h-158.64406787v-67.11864346h158.64406787c109.83050859 0 198.30508506-91.52542354 198.30508506-201.35593212v-18.30508507c0-109.83050859-88.47457646-201.35593213-198.30508506-201.35593212h-158.64406787V235.89830498h158.64406787c146.44067783 0 265.42372852 118.98305068 265.42372939 268.47457646v21.35593213c0 146.44067783-118.98305068 265.42372852-265.42372939 265.42372852z m0 0" p-id="22558" fill="#1ECC94"></path><path d="M812.50847422 794.20339003l45.76271221-48.81355927 109.83050859 100.67796562-45.76271221 48.81355928-109.83050859-100.67796563z m-61.01694844-106.77966151v-286.77966065c-6.10169502 6.10169502-18.30508506 12.20339003-33.55932216 21.35593213-15.25423711 9.15254209-30.50847422 12.20339003-42.71186427 18.30508506V397.59321992c18.30508506-3.05084707 36.61016924-12.20339003 57.96610138-24.4067792 18.30508506-12.20339003 36.61016924-21.35593213 45.7627122-30.50847421h15.2542371v341.69491494l-42.71186425 3.05084707zM592.84745791 184.03389864l45.76271133-48.81355929 109.83050859 100.67796563L702.67796651 284.71186426 592.84745791 184.03389864z m0-1e-8" p-id="22559" fill="#1ECC94"></path></svg>