<?xml version="1.0" standalone="no"?><!DOCTYPE svg PUBLIC "-//W3C//DTD SVG 1.1//EN" "http://www.w3.org/Graphics/SVG/1.1/DTD/svg11.dtd"><svg t="1636199949715" class="icon" viewBox="0 0 1024 1024" version="1.1" xmlns="http://www.w3.org/2000/svg" p-id="13694" xmlns:xlink="http://www.w3.org/1999/xlink" width="64" height="64"><defs><style type="text/css"></style></defs><path d="M882.125 492.125l-93.188-53.625v426.375h-553.5v-423.563l-90.375 50.813-112.875-197.813 245.625-135.563h62.062c14.063 62.063 87.563 107.25 172.313 107.25s155.25-45.187 172.313-107.25h70.5l237.188 135.563-110.063 197.813zM371 616.25c-5.625-8.438-8.438-16.875-8.438-28.313 0-28.313 22.5-53.625 53.625-53.625h141.188v45.188l107.25-64.875-107.25-64.875v45.188h-141.188c-50.812 0-93.188 42.375-93.188 93.188 0 16.875 5.625 33.938 14.063 48l33.938-19.875zM695.75 588.125c0-16.875-5.625-33.938-14.063-50.813l-33.938 19.688c5.625 8.438 8.438 16.875 8.438 28.313 0 28.313-22.5 53.625-53.625 53.625h-141.188v-45.188l-107.25 64.875 107.25 64.875v-45.188h141.188c53.625 3 93.188-39.375 93.188-90.188z" fill="#7B7B7B" p-id="13695"></path></svg>