<?xml version="1.0" standalone="no"?><!DOCTYPE svg PUBLIC "-//W3C//DTD SVG 1.1//EN" "http://www.w3.org/Graphics/SVG/1.1/DTD/svg11.dtd"><svg t="1636184205621" class="icon" viewBox="0 0 1024 1024" version="1.1" xmlns="http://www.w3.org/2000/svg" p-id="5512" xmlns:xlink="http://www.w3.org/1999/xlink" width="64" height="64"><defs><style type="text/css"></style></defs><path d="M598.4 830.8H196.9c-73.7 0-133.6-59.9-133.6-133.6V332.6c0-73.7 59.9-133.6 133.6-133.6h401.5c73.7 0 133.6 59.9 133.6 133.6v364.7c0 73.6-59.9 133.5-133.6 133.5zM196.9 288.6c-24.2 0-44 19.7-44 44v364.7c0 24.2 19.7 44 44 44h401.5c24.2 0 44-19.7 44-44V332.6c0-24.2-19.7-44-44-44H196.9z" fill="#333333" p-id="5513"></path><path d="M876 740.1c-11 0-22.1-2.2-32.7-6.7l-173.7-74c-16.5-7-27.3-23.3-27.3-41.2V411.7c0-18 10.7-34.2 27.3-41.2l173.7-74c25.7-11 55.1-8.3 78.6 7.1 23.4 15.5 37.4 41.5 37.4 69.5v283.6c0 28.1-14 54-37.4 69.5-13.8 9.2-29.8 13.9-45.9 13.9z m2.4-89.1zM732 588.6l137.7 58.7V382.6L732 441.3v147.3z" fill="#333333" p-id="5514"></path><path d="M256.2 392.9m-50.4 0a50.4 50.4 0 1 0 100.8 0 50.4 50.4 0 1 0-100.8 0Z" fill="#333333" p-id="5515"></path></svg>