<?xml version="1.0" standalone="no"?><!DOCTYPE svg PUBLIC "-//W3C//DTD SVG 1.1//EN" "http://www.w3.org/Graphics/SVG/1.1/DTD/svg11.dtd"><svg t="1636548871431" class="icon" viewBox="0 0 1024 1024" version="1.1" xmlns="http://www.w3.org/2000/svg" p-id="4836" xmlns:xlink="http://www.w3.org/1999/xlink" width="64" height="64"><defs><style type="text/css"></style></defs><path d="M569.408 63.936c20.032 0 38.592 16 38.592 38.592v818.944a38.592 38.592 0 0 1-59.328 32.384l-255.68-182.272A19.2 19.2 0 0 0 281.856 768H64a32 32 0 0 1-32-32v-448A32 32 0 0 1 64 256h217.728c4.096 0 8.064-1.28 11.328-3.648l255.616-182.208a38.464 38.464 0 0 1 20.736-6.208z m134.848 52.224A414.912 414.912 0 0 1 992 512a414.848 414.848 0 0 1-287.744 395.84l-19.84-60.864A351.104 351.104 0 0 0 928 512a351.104 351.104 0 0 0-243.52-334.976z m-160.256 35.84L330.24 304.512A83.328 83.328 0 0 1 281.728 320H96v384h185.856c17.472 0 34.112 5.376 48.32 15.488l213.76 152.448V151.936z" p-id="4837" fill="#1ECC94"></path></svg>