<?xml version="1.0" standalone="no"?><!DOCTYPE svg PUBLIC "-//W3C//DTD SVG 1.1//EN" "http://www.w3.org/Graphics/SVG/1.1/DTD/svg11.dtd"><svg t="1636199607377" class="icon" viewBox="0 0 1024 1024" version="1.1" xmlns="http://www.w3.org/2000/svg" p-id="8806" xmlns:xlink="http://www.w3.org/1999/xlink" width="64" height="64"><defs><style type="text/css"></style></defs><path d="M512 0c283.569231 0 512 228.430769 512 512s-228.430769 512-512 512S0 795.569231 0 512 228.430769 0 512 0z" fill="#f12442" p-id="8807" data-spm-anchor-id="a313x.7781069.0.i33" class="selected"></path><path d="M689.230769 267.815385c-7.876923-7.876923-19.692308-11.815385-31.507692-11.815385-11.815385 0-23.630769 3.938462-31.507692 11.815385L512 389.907692l-110.276923-122.092307c-11.815385-7.876923-23.630769-11.815385-35.446154-11.815385-11.815385 0-23.630769 3.938462-31.507692 11.815385-19.692308 19.692308-19.692308 47.261538 0 66.953846l66.953846 74.830769H326.892308c-7.876923 0-11.815385 3.938462-11.815385 11.815385v59.076923c0 7.876923 3.938462 11.815385 11.815385 11.815384H472.615385v78.769231H366.276923c-7.876923 0-11.815385 3.938462-11.815385 11.815385v55.138461c0 7.876923 3.938462 11.815385 11.815385 11.815385H472.615385v74.830769c0 23.630769 15.753846 47.261538 39.384615 47.261539 27.569231 0 43.323077-19.692308 43.323077-47.261539v-74.830769h106.338461c7.876923 0 11.815385-3.938462 11.815385-11.815385v-55.138461c0-7.876923-3.938462-11.815385-11.815385-11.815385h-106.338461v-78.769231h141.784615c7.876923 0 11.815385-3.938462 11.815385-11.815384v-59.076923c0-7.876923-3.938462-11.815385-11.815385-11.815385h-70.892307l66.953846-74.830769c15.753846-19.692308 15.753846-47.261538-3.938462-66.953846z" fill="#FFFFFF" p-id="8808"></path></svg>