<?xml version="1.0" standalone="no"?><!DOCTYPE svg PUBLIC "-//W3C//DTD SVG 1.1//EN" "http://www.w3.org/Graphics/SVG/1.1/DTD/svg11.dtd"><svg t="1636199530452" class="icon" viewBox="0 0 1024 1024" version="1.1" xmlns="http://www.w3.org/2000/svg" p-id="7413" xmlns:xlink="http://www.w3.org/1999/xlink" width="64" height="64"><defs><style type="text/css"></style></defs><path d="M768.64 45.12H255.36L0.64 309.92v121.12L512 978.88l511.36-547.84v-121.12L768.64 45.12z m0 0" fill="#FC8614" p-id="7414"></path><path d="M0 431.04l512 547.84 512-547.84H0z m0 0" fill="#29CE99" p-id="7415" data-spm-anchor-id="a313x.7781069.0.i22" class="selected"></path><path d="M0.64 431.04l511.36 3.84L256 45.12 0.64 431.04z m0 0" fill="#29CE99" p-id="7416" data-spm-anchor-id="a313x.7781069.0.i29" class="selected"></path><path d="M0.64 309.92L512 978.88 256 45.12 0.64 309.92z m0 0" fill="#29CE99" p-id="7417" data-spm-anchor-id="a313x.7781069.0.i21" class="selected"></path><path d="M1024 431.04l-511.36 3.84 256-389.6L1024 431.04z m0 0" fill="#29CE99" p-id="7418" data-spm-anchor-id="a313x.7781069.0.i30" class="selected"></path><path d="M1024 309.92l-511.36 668.8 256-933.6L1024 309.92z m0 0" fill="#29CE99" p-id="7419" data-spm-anchor-id="a313x.7781069.0.i23" class="selected"></path><path d="M0.64 431.04L512 978.88 0.64 309.92v121.12z m0 0M1024 431.04L512.64 978.88 1024 309.92v121.12z m0 0" fill="#29CE99" p-id="7420" data-spm-anchor-id="a313x.7781069.0.i26" class="selected"></path><path d="M256 45.12l256 389.6L768 45.12H256z m0 0" fill="#29CE99" p-id="7421" data-spm-anchor-id="a313x.7781069.0.i25" class="selected"></path><path d="M94.72 434.88L512 45.12l417.92 389.6H94.72z m0 0" fill="#29CE99" p-id="7422" data-spm-anchor-id="a313x.7781069.0.i20" class="selected"></path><path d="M746.72 332c-16.96 0-28.8 1.28-36.32 3.84-6.88 2.56-11.84 6.24-13.76 10.72L554.72 675.2h-82.24l-136.16-328.16c-2.56-4.96-7.52-8.8-15.68-11.36-8.16-2.56-18.24-3.84-30.72-3.84V302.4h207.04v29.44h-49.6c-10.72 0-16.32 3.2-16.32 8.8 0 1.92 0.64 4.32 1.92 6.24l108.48 267.84 108.48-264.16c1.28-2.56 1.92-4.32 1.92-6.88 0-8.16-8.8-11.84-25.76-11.84h-35.2V302.4h154.4l1.44 29.6z m0 0" fill="#FFFFFF" p-id="7423" data-spm-anchor-id="a313x.7781069.0.i19" class=""></path></svg>